<svg height="526" width="720" xmlns="http://www.w3.org/2000/svg">
<rect height="526" fill="#555" width="720"></rect>
<text fill="#7f7" font-family="Courier New" font-size="12" xml:space="preserve">
<tspan x="10" y="26">4 megabytes installed</tspan>
<tspan x="10" y="42"></tspan>
<tspan x="10" y="58">node_modules</tspan>
<tspan x="10" y="74">└─┬ gulp-prettify@0.5.0 </tspan>
<tspan x="10" y="90">  ├─┬ extend-shallow@2.0.1 </tspan>
<tspan x="10" y="106">  │ └── is-extendable@0.1.1 </tspan>
<tspan x="10" y="122">  ├─┬ js-beautify@1.6.12 </tspan>
<tspan x="10" y="138">  │ ├─┬ config-chain@1.1.11 </tspan>
<tspan x="10" y="154">  │ │ ├── ini@1.3.4 </tspan>
<tspan x="10" y="170">  │ │ └── proto-list@1.2.4 </tspan>
<tspan x="10" y="186">  │ ├─┬ editorconfig@0.13.2 </tspan>
<tspan x="10" y="202">  │ │ ├── bluebird@3.5.0 </tspan>
<tspan x="10" y="218">  │ │ ├─┬ commander@2.9.0 </tspan>
<tspan x="10" y="234">  │ │ │ └── graceful-readlink@1.0.1 </tspan>
<tspan x="10" y="250">  │ │ ├─┬ lru-cache@3.2.0 </tspan>
<tspan x="10" y="266">  │ │ │ └── pseudomap@1.0.2 </tspan>
<tspan x="10" y="282">  │ │ └── sigmund@1.0.1 </tspan>
<tspan x="10" y="298">  │ ├─┬ mkdirp@0.5.1 </tspan>
<tspan x="10" y="314">  │ │ └── minimist@0.0.8 </tspan>
<tspan x="10" y="330">  │ └─┬ nopt@3.0.6 </tspan>
<tspan x="10" y="346">  │   └── abbrev@1.1.0 </tspan>
<tspan x="10" y="362">  └─┬ through2@2.0.3 </tspan>
<tspan x="10" y="378">    ├─┬ readable-stream@2.2.9 </tspan>
<tspan x="10" y="394">    │ ├── buffer-shims@1.0.0 </tspan>
<tspan x="10" y="410">    │ ├── core-util-is@1.0.2 </tspan>
<tspan x="10" y="426">    │ ├── inherits@2.0.3 </tspan>
<tspan x="10" y="442">    │ ├── isarray@1.0.0 </tspan>
<tspan x="10" y="458">    │ ├── process-nextick-args@1.0.7 </tspan>
<tspan x="10" y="474">    │ ├── string_decoder@1.0.0 </tspan>
<tspan x="10" y="490">    │ └── util-deprecate@1.0.2 </tspan>
<tspan x="10" y="506">    └── xtend@4.0.1</tspan>
</text>
</svg>
